HIERARCHY
ROOT Hips
{
	OFFSET -37.322651 -40.248280 87.840942
	CHANNELS 6 Xposition Yposition Zposition Zrotation Yrotation Xrotation
	JOINT Spine
	{
		OFFSET 0.000000 2.080109 8.814247
		CHANNELS 6 Xposition Yposition Zposition Zrotation Yrotation Xrotation
		JOINT Spine1
		{
			OFFSET 0.000000 0.000000 8.844139
			CHANNELS 6 Xposition Yposition Zposition Zrotation Yrotation Xrotation
			JOINT Spine2
			{
				OFFSET 0.000000 0.000000 11.682266
				CHANNELS 6 Xposition Yposition Zposition Zrotation Yrotation Xrotation
				JOINT Spine3
				{
					OFFSET 0.000000 0.000004 11.746704
					CHANNELS 6 Xposition Yposition Zposition Zrotation Yrotation Xrotation
					JOINT Neck
					{
						OFFSET 0.000000 0.000000 17.658264
						CHANNELS 6 Xposition Yposition Zposition Zrotation Yrotation Xrotation
						JOINT Neck1
						{
							OFFSET 0.000000 0.000000 5.101517
							CHANNELS 6 Xposition Yposition Zposition Zrotation Yrotation Xrotation
							JOINT Head
							{
								OFFSET 0.000000 0.000000 5.101517
								CHANNELS 6 Xposition Yposition Zposition Zrotation Yrotation Xrotation
								JOINT HeadEnd
								{
									OFFSET 0.000000 0.000000 11.655090
									CHANNELS 6 Xposition Yposition Zposition Zrotation Yrotation Xrotation
									End Site
									{
										OFFSET 0.000000 0.000000 0.100006
									}
								}
							}
						}
					}
					JOINT RightShoulder
					{
						OFFSET -2.625389 0.000000 11.175217
						CHANNELS 6 Xposition Yposition Zposition Zrotation Yrotation Xrotation
						JOINT RightArm
						{
							OFFSET 0.000000 0.000000 10.434723
							CHANNELS 6 Xposition Yposition Zposition Zrotation Yrotation Xrotation
							JOINT RightForeArm
							{
								OFFSET 0.000000 0.000004 29.628418
								CHANNELS 6 Xposition Yposition Zposition Zrotation Yrotation Xrotation
								JOINT RightHand
								{
									OFFSET 0.000000 0.000000 22.857605
									CHANNELS 6 Xposition Yposition Zposition Zrotation Yrotation Xrotation
									JOINT RightHandThumb1
									{
										OFFSET -2.867321 -2.944290 3.959564
										CHANNELS 6 Xposition Yposition Zposition Zrotation Yrotation Xrotation
										JOINT RightHandThumb2
										{
											OFFSET 0.000000 0.000000 3.350403
											CHANNELS 6 Xposition Yposition Zposition Zrotation Yrotation Xrotation
											JOINT RightHandThumb3
											{
												OFFSET 0.000000 0.000000 3.756516
												CHANNELS 6 Xposition Yposition Zposition Zrotation Yrotation Xrotation
												JOINT RightHandThumb4
												{
													OFFSET 0.000000 0.000000 3.147339
													CHANNELS 6 Xposition Yposition Zposition Zrotation Yrotation Xrotation
													End Site
													{
														OFFSET 0.000000 0.000000 0.100006
													}
												}
											}
										}
									}
									JOINT RightHandIndex1
									{
										OFFSET -0.086754 -2.345280 10.030899
										CHANNELS 6 Xposition Yposition Zposition Zrotation Yrotation Xrotation
										JOINT RightHandIndex2
										{
											OFFSET 0.000000 0.000000 4.061096
											CHANNELS 6 Xposition Yposition Zposition Zrotation Yrotation Xrotation
											JOINT RightHandIndex3
											{
												OFFSET 0.000000 0.000000 3.248871
												CHANNELS 6 Xposition Yposition Zposition Zrotation Yrotation Xrotation
												JOINT RightHandIndex4
												{
													OFFSET 0.000000 0.000000 2.639709
													CHANNELS 6 Xposition Yposition Zposition Zrotation Yrotation Xrotation
													End Site
													{
														OFFSET 0.000000 0.000000 0.100006
													}
												}
											}
										}
									}
									JOINT RightHandMiddle1
									{
										OFFSET 0.104103 -0.006767 9.502945
										CHANNELS 6 Xposition Yposition Zposition Zrotation Yrotation Xrotation
										JOINT RightHandMiddle2
										{
											OFFSET 0.000000 0.000000 4.568726
											CHANNELS 6 Xposition Yposition Zposition Zrotation Yrotation Xrotation
											JOINT RightHandMiddle3
											{
												OFFSET 0.000000 0.000000 3.654984
												CHANNELS 6 Xposition Yposition Zposition Zrotation Yrotation Xrotation
												JOINT RightHandMiddle4
												{
													OFFSET 0.000000 0.000000 2.741241
													CHANNELS 6 Xposition Yposition Zposition Zrotation Yrotation Xrotation
													End Site
													{
														OFFSET 0.000000 0.000000 0.100006
													}
												}
											}
										}
									}
									JOINT RightHandRing1
									{
										OFFSET 0.086754 2.267441 8.921707
										CHANNELS 6 Xposition Yposition Zposition Zrotation Yrotation Xrotation
										JOINT RightHandRing2
										{
											OFFSET 0.000000 0.000000 4.061096
											CHANNELS 6 Xposition Yposition Zposition Zrotation Yrotation Xrotation
											JOINT RightHandRing3
											{
												OFFSET 0.000000 0.000000 3.654984
												CHANNELS 6 Xposition Yposition Zposition Zrotation Yrotation Xrotation
												JOINT RightHandRing4
												{
													OFFSET 0.000000 0.000000 2.741241
													CHANNELS 6 Xposition Yposition Zposition Zrotation Yrotation Xrotation
													End Site
													{
														OFFSET 0.000000 0.000000 0.100006
													}
												}
											}
										}
									}
									JOINT RightHandPinky1
									{
										OFFSET -0.173504 4.467197 7.976990
										CHANNELS 6 Xposition Yposition Zposition Zrotation Yrotation Xrotation
										JOINT RightHandPinky2
										{
											OFFSET 0.000000 0.000000 3.350403
											CHANNELS 6 Xposition Yposition Zposition Zrotation Yrotation Xrotation
											JOINT RightHandPinky3
											{
												OFFSET 0.000000 0.000000 2.842758
												CHANNELS 6 Xposition Yposition Zposition Zrotation Yrotation Xrotation
												JOINT RightHandPinky4
												{
													OFFSET 0.000000 0.000000 2.639709
													CHANNELS 6 Xposition Yposition Zposition Zrotation Yrotation Xrotation
													End Site
													{
														OFFSET 0.000000 0.000000 0.100006
													}
												}
											}
										}
									}
									JOINT RightForeArmEnd
									{
										OFFSET 0.000000 0.000000 0.000000
										CHANNELS 6 Xposition Yposition Zposition Zrotation Yrotation Xrotation
										End Site
										{
											OFFSET 0.000000 0.000000 0.100006
										}
									}
								}
								JOINT RightArmEnd
								{
									OFFSET 0.000000 0.000000 0.000000
									CHANNELS 6 Xposition Yposition Zposition Zrotation Yrotation Xrotation
									End Site
									{
										OFFSET 0.000000 0.000000 0.100006
									}
								}
							}
						}
					}
					JOINT LeftShoulder
					{
						OFFSET 2.625389 0.000000 11.175217
						CHANNELS 6 Xposition Yposition Zposition Zrotation Yrotation Xrotation
						JOINT LeftArm
						{
							OFFSET 0.000000 0.000000 10.813629
							CHANNELS 6 Xposition Yposition Zposition Zrotation Yrotation Xrotation
							JOINT LeftForeArm
							{
								OFFSET 0.000000 0.000004 28.724777
								CHANNELS 6 Xposition Yposition Zposition Zrotation Yrotation Xrotation
								JOINT LeftHand
								{
									OFFSET 0.644382 0.328873 25.716171
									CHANNELS 6 Xposition Yposition Zposition Zrotation Yrotation Xrotation
									JOINT LeftHandThumb1
									{
										OFFSET 2.867323 -2.944290 3.959564
										CHANNELS 6 Xposition Yposition Zposition Zrotation Yrotation Xrotation
										JOINT LeftHandThumb2
										{
											OFFSET 0.000000 0.000000 3.350403
											CHANNELS 6 Xposition Yposition Zposition Zrotation Yrotation Xrotation
											JOINT LeftHandThumb3
											{
												OFFSET 0.000000 0.000000 3.756516
												CHANNELS 6 Xposition Yposition Zposition Zrotation Yrotation Xrotation
												JOINT LeftHandThumb4
												{
													OFFSET 0.000000 0.000000 3.100006
													CHANNELS 6 Xposition Yposition Zposition Zrotation Yrotation Xrotation
													End Site
													{
														OFFSET 0.000000 0.000000 0.100006
													}
												}
											}
										}
									}
									JOINT LeftHandIndex1
									{
										OFFSET 0.086754 -2.345280 10.030899
										CHANNELS 6 Xposition Yposition Zposition Zrotation Yrotation Xrotation
										JOINT LeftHandIndex2
										{
											OFFSET 0.000000 0.000000 4.061096
											CHANNELS 6 Xposition Yposition Zposition Zrotation Yrotation Xrotation
											JOINT LeftHandIndex3
											{
												OFFSET 0.000000 0.000000 3.248871
												CHANNELS 6 Xposition Yposition Zposition Zrotation Yrotation Xrotation
												JOINT LeftHandIndex4
												{
													OFFSET 0.000000 0.000000 2.639709
													CHANNELS 6 Xposition Yposition Zposition Zrotation Yrotation Xrotation
													End Site
													{
														OFFSET 0.000000 0.000000 0.100006
													}
												}
											}
										}
									}
									JOINT LeftHandMiddle1
									{
										OFFSET -0.104103 -0.006767 9.502945
										CHANNELS 6 Xposition Yposition Zposition Zrotation Yrotation Xrotation
										JOINT LeftHandMiddle2
										{
											OFFSET 0.000000 0.000000 4.568726
											CHANNELS 6 Xposition Yposition Zposition Zrotation Yrotation Xrotation
											JOINT LeftHandMiddle3
											{
												OFFSET 0.000000 0.000000 3.654984
												CHANNELS 6 Xposition Yposition Zposition Zrotation Yrotation Xrotation
												JOINT LeftHandMiddle4
												{
													OFFSET 0.000000 0.000000 2.741241
													CHANNELS 6 Xposition Yposition Zposition Zrotation Yrotation Xrotation
													End Site
													{
														OFFSET 0.000000 0.000000 0.100006
													}
												}
											}
										}
									}
									JOINT LeftHandRing1
									{
										OFFSET -0.086754 2.267441 8.921707
										CHANNELS 6 Xposition Yposition Zposition Zrotation Yrotation Xrotation
										JOINT LeftHandRing2
										{
											OFFSET 0.000000 0.000000 4.061096
											CHANNELS 6 Xposition Yposition Zposition Zrotation Yrotation Xrotation
											JOINT LeftHandRing3
											{
												OFFSET 0.000000 0.000000 3.654984
												CHANNELS 6 Xposition Yposition Zposition Zrotation Yrotation Xrotation
												JOINT LeftHandRing4
												{
													OFFSET 0.000000 0.000000 2.741241
													CHANNELS 6 Xposition Yposition Zposition Zrotation Yrotation Xrotation
													End Site
													{
														OFFSET 0.000000 0.000000 0.100006
													}
												}
											}
										}
									}
									JOINT LeftHandPinky1
									{
										OFFSET 0.173504 4.467197 7.976990
										CHANNELS 6 Xposition Yposition Zposition Zrotation Yrotation Xrotation
										JOINT LeftHandPinky2
										{
											OFFSET 0.000000 0.000000 3.350403
											CHANNELS 6 Xposition Yposition Zposition Zrotation Yrotation Xrotation
											JOINT LeftHandPinky3
											{
												OFFSET 0.000000 0.000000 2.842758
												CHANNELS 6 Xposition Yposition Zposition Zrotation Yrotation Xrotation
												JOINT LeftHandPinky4
												{
													OFFSET 0.000000 0.000000 2.639709
													CHANNELS 6 Xposition Yposition Zposition Zrotation Yrotation Xrotation
													End Site
													{
														OFFSET 0.000000 0.000000 0.100006
													}
												}
											}
										}
									}
									JOINT LeftForeArmEnd
									{
										OFFSET 0.000000 0.000000 0.000000
										CHANNELS 6 Xposition Yposition Zposition Zrotation Yrotation Xrotation
										End Site
										{
											OFFSET 0.000000 0.000000 0.100006
										}
									}
								}
								JOINT LeftArmEnd
								{
									OFFSET 0.000000 0.000000 0.000000
									CHANNELS 6 Xposition Yposition Zposition Zrotation Yrotation Xrotation
									End Site
									{
										OFFSET 0.000000 0.000000 0.100006
									}
								}
							}
						}
					}
				}
			}
		}
	}
	JOINT RightUpLeg
	{
		OFFSET -11.289944 0.000000 0.000000
		CHANNELS 6 Xposition Yposition Zposition Zrotation Yrotation Xrotation
		JOINT RightLeg
		{
			OFFSET 0.000000 -0.000004 -38.200321
			CHANNELS 6 Xposition Yposition Zposition Zrotation Yrotation Xrotation
			JOINT RightFoot
			{
				OFFSET 0.000000 -0.000004 -39.900856
				CHANNELS 6 Xposition Yposition Zposition Zrotation Yrotation Xrotation
				JOINT RightToeBase
				{
					OFFSET 0.000000 -15.261639 0.000001
					CHANNELS 6 Xposition Yposition Zposition Zrotation Yrotation Xrotation
					JOINT RightToeBaseEnd
					{
						OFFSET 0.000000 -7.370708 0.000001
						CHANNELS 6 Xposition Yposition Zposition Zrotation Yrotation Xrotation
						End Site
						{
							OFFSET 0.000000 0.000000 0.100000
						}
					}
				}
				JOINT RightLegEnd
				{
					OFFSET 0.000000 0.000000 0.000000
					CHANNELS 6 Xposition Yposition Zposition Zrotation Yrotation Xrotation
					End Site
					{
						OFFSET 0.000000 0.000000 0.100000
					}
				}
			}
			JOINT RightUpLegEnd
			{
				OFFSET 0.000000 0.000000 0.000000
				CHANNELS 6 Xposition Yposition Zposition Zrotation Yrotation Xrotation
				End Site
				{
					OFFSET 0.000000 0.000000 0.099998
				}
			}
		}
	}
	JOINT LeftUpLeg
	{
		OFFSET 11.315662 0.000000 0.000000
		CHANNELS 6 Xposition Yposition Zposition Zrotation Yrotation Xrotation
		JOINT LeftLeg
		{
			OFFSET 0.000000 -0.000004 -38.200321
			CHANNELS 6 Xposition Yposition Zposition Zrotation Yrotation Xrotation
			JOINT LeftFoot
			{
				OFFSET 0.000000 -0.000004 -39.900856
				CHANNELS 6 Xposition Yposition Zposition Zrotation Yrotation Xrotation
				JOINT LeftToeBase
				{
					OFFSET 0.000000 -15.261639 0.000001
					CHANNELS 6 Xposition Yposition Zposition Zrotation Yrotation Xrotation
					JOINT LeftToeBaseEnd
					{
						OFFSET 0.000000 -7.539997 0.000001
						CHANNELS 6 Xposition Yposition Zposition Zrotation Yrotation Xrotation
						End Site
						{
							OFFSET 0.000000 0.000000 0.100000
						}
					}
				}
				JOINT LeftLegEnd
				{
					OFFSET 0.000000 0.000000 0.000000
					CHANNELS 6 Xposition Yposition Zposition Zrotation Yrotation Xrotation
					End Site
					{
						OFFSET 0.000000 0.000000 0.100000
					}
				}
			}
			JOINT LeftUpLegEnd
			{
				OFFSET 0.000000 0.000000 0.000000
				CHANNELS 6 Xposition Yposition Zposition Zrotation Yrotation Xrotation
				End Site
				{
					OFFSET 0.000000 0.000000 0.099998
				}
			}
		}
	}
}
MOTION
Frames: 2
Frame Time: 0.016667
-13.472122 -2.105747 84.762512 -15.439439 8.463205 -17.674281 0.000000 2.080100 8.814246 -1.625174 -4.760950 6.593550 0.000005 0.000001 8.844131 -0.339563 -0.436164 3.789560 0.000003 0.000001 11.682272 -6.563481 -7.467305 15.782658 -0.000003 0.000005 11.746711 -1.291998 1.103700 0.310408 0.000002 -0.000002 17.658283 -1.820057 -13.315269 5.458040 0.000003 0.000006 5.101529 0.828929 4.076544 -10.250668 -0.000004 0.000005 5.101549 3.575860 0.944809 -25.952019 0.000002 -0.000004 11.655089 0.000002 0.000001 0.000003 -2.625409 -0.000005 11.175211 6.020911 -95.718169 -0.439238 -0.000014 -0.000001 10.434719 -48.347375 -49.727677 39.067050 0.000005 0.000000 29.628428 21.695384 -4.223660 37.279736 0.000009 -0.000002 22.857615 23.680590 -2.014596 -13.141224 -2.867315 -2.944307 3.959560 31.604498 -17.443572 51.240233 0.000002 0.000007 3.350416 -13.067163 8.582234 -23.537290 -0.000004 0.000010 3.756540 -8.692139 6.542947 -16.108016 -0.000002 -0.000004 3.147339 -0.000002 -0.000001 -0.000001 -0.086769 -2.345279 10.030910 -12.106543 -17.317470 3.355644 -0.000001 -0.000005 4.061110 0.289613 -12.404474 1.771708 -0.000004 -0.000003 3.248878 -0.208373 -12.404609 1.772843 -0.000002 -0.000006 2.639710 0.000000 -0.000000 -0.000001 0.104099 -0.006763 9.502947 -6.968638 -18.034457 0.405988 0.000000 -0.000000 4.568743 0.376800 -12.796008 0.667149 -0.000005 -0.000000 3.655007 -0.116467 -12.796533 0.669459 -0.000005 0.000001 2.741243 -0.000001 0.000001 -0.000000 0.086758 2.267440 8.921690 1.190304 -19.377656 -2.291189 0.000005 -0.000000 4.061111 -0.861198 -13.839767 -0.870960 0.000000 -0.000003 3.655014 0.130311 -13.839525 -0.863289 -0.000005 0.000004 2.741255 0.000001 -0.000001 0.000001 -0.173516 4.467199 7.977009 10.057534 -18.890208 -7.233692 -0.000017 0.000009 3.350401 -1.662218 -13.968817 -2.770393 -0.000007 0.000000 2.842764 0.337086 -13.968800 -2.770333 -0.000009 -0.000001 2.639712 0.000001 0.000003 -0.000000 -0.000003 0.000003 -0.000016 0.000002 0.000000 0.000001 0.000004 -0.000003 0.000015 -0.000000 -0.000001 0.000000 2.625398 -0.000002 11.175233 -8.541777 94.313431 -1.071114 -0.000025 0.000003 10.813606 58.353257 39.337081 52.482132 -0.000003 0.000013 28.724771 -7.338649 1.467540 47.168798 0.644379 0.328869 25.716139 -25.616257 -1.350116 -14.513884 2.867325 -2.944315 3.959557 -31.742648 16.402122 52.841868 -0.000009 0.000017 3.350420 10.770531 -7.598599 -19.674278 -0.000001 0.000015 3.756498 7.196756 -5.677114 -13.491764 0.000001 -0.000002 3.100023 0.000001 0.000000 -0.000001 0.086760 -2.345282 10.030903 -6.036382 14.391424 -5.786457 0.000006 -0.000002 4.061093 0.352855 10.620662 -1.511391 0.000003 0.000002 3.248866 -0.146738 10.620662 -1.511321 0.000004 -0.000004 2.639694 -0.000000 0.000000 0.000000 -0.104101 -0.006772 9.502925 -0.804193 15.324651 -4.623087 0.000009 -0.000002 4.568744 0.442324 11.061404 -0.587190 -0.000000 0.000006 3.654990 -0.055795 11.061431 -0.580205 0.000000 -0.000004 2.741272 0.000004 -0.000000 -0.000001 -0.086757 2.267437 8.921702 7.802401 17.036946 0.588689 0.000002 0.000001 4.061150 -0.937838 12.087072 0.739035 0.000009 -0.000001 3.654989 0.065604 12.087098 0.741426 0.000001 -0.000002 2.741257 -0.000002 -0.000000 -0.000001 0.173504 4.467192 7.976977 16.696715 16.516057 5.219025 0.000006 -0.000005 3.350433 -1.765988 12.041428 2.366045 -0.000001 0.000005 2.842746 0.236576 12.041423 2.367588 0.000001 0.000004 2.639726 -0.000002 -0.000003 -0.000005 0.000001 -0.000003 -0.000031 0.000002 -0.000001 -0.000000 0.000007 0.000009 -0.000014 0.000000 0.000000 -0.000001 -11.289943 -0.000010 -0.000007 -2.068254 -15.352281 21.052675 -0.000003 -0.000008 -38.200310 -0.135982 0.027030 10.446780 0.000001 0.000001 -39.900864 -15.327414 10.381664 11.322979 0.000001 -15.261641 0.000001 -0.670885 -0.605189 -27.597970 -0.000001 -7.370710 0.000001 0.000002 -0.000001 0.000000 -0.000001 0.000002 0.000000 -0.000002 0.000001 0.000000 0.000000 -0.000003 -0.000001 -0.000000 -0.000001 -0.000000 11.315671 -0.000008 -0.000007 -6.388052 -26.185105 6.775260 0.000001 -0.000004 -38.200321 1.168929 -1.021637 41.290939 0.000004 -0.000006 -39.900848 7.754398 13.001264 19.683152 0.000002 -15.261639 -0.000000 1.753183 1.658750 -35.260595 0.000002 -7.540001 0.000002 -0.000001 0.000001 -0.000000 -0.000001 0.000000 0.000001 -0.000000 0.000000 -0.000002 0.000003 0.000002 0.000009 -0.000000 -0.000002 0.000002 
-13.469145 -2.106731 84.760361 -15.432363 8.458717 -17.724809 0.000001 2.080107 8.814250 -1.626823 -4.748074 6.595417 0.000002 -0.000000 8.844149 -0.353099 -0.487634 3.737377 0.000003 0.000004 11.682268 -6.549902 -7.419773 15.861794 -0.000001 0.000003 11.746695 -1.278578 1.089067 0.314769 -0.000005 0.000005 17.658262 -1.631051 -13.180702 5.497462 0.000005 0.000002 5.101508 0.990270 4.075846 -10.215406 0.000005 0.000006 5.101528 3.572128 1.038781 -26.062764 -0.000001 -0.000006 11.655076 0.000001 -0.000001 -0.000002 -2.625396 -0.000001 11.175192 6.003737 -95.723469 -0.424092 -0.000020 -0.000001 10.434737 -48.343194 -49.729754 39.040651 -0.000001 -0.000011 29.628399 21.689484 -4.256717 37.232331 0.000000 -0.000002 22.857599 23.666494 -1.997414 -13.143754 -2.867321 -2.944283 3.959573 31.604504 -17.443560 51.240257 0.000002 0.000025 3.350432 -13.067162 8.582244 -23.537286 0.000005 -0.000001 3.756547 -8.692149 6.542926 -16.108047 -0.000006 -0.000006 3.147355 -0.000003 0.000000 -0.000001 -0.086760 -2.345280 10.030900 -12.106607 -17.323387 3.403011 -0.000008 -0.000003 4.061090 0.290371 -12.410122 1.771517 -0.000005 -0.000003 3.248878 -0.207728 -12.413832 1.772386 -0.000004 -0.000009 2.639711 -0.000001 0.000003 0.000000 0.104098 -0.006765 9.502929 -6.967453 -18.034391 0.439494 0.000003 0.000000 4.568727 0.379734 -12.799228 0.670045 -0.000004 0.000001 3.654997 -0.114204 -12.800102 0.671913 0.000002 -0.000001 2.741243 -0.000001 0.000004 0.000002 0.086749 2.267440 8.921717 1.191299 -19.362084 -2.268982 -0.000001 0.000003 4.061116 -0.863182 -13.827528 -0.868792 0.000007 -0.000002 3.654992 0.128852 -13.827341 -0.861920 -0.000001 -0.000004 2.741257 0.000000 0.000001 0.000000 -0.173502 4.467195 7.977004 10.061719 -18.854546 -7.213880 -0.000008 0.000001 3.350417 -1.662762 -13.941541 -2.765576 0.000001 -0.000000 2.842765 0.335892 -13.941508 -2.766219 -0.000009 -0.000000 2.639713 -0.000001 0.000003 -0.000003 0.000002 0.000002 0.000015 -0.000004 -0.000000 0.000000 -0.000002 -0.000005 -0.000014 -0.000001 0.000000 -0.000001 2.625391 0.000003 11.175203 -8.542303 94.436586 -1.068808 0.000010 0.000002 10.813625 57.878039 39.121869 52.067598 -0.000001 0.000025 28.724787 -6.410760 1.412586 47.317502 0.644382 0.328863 25.716185 -26.155549 -1.592156 -14.546256 2.867319 -2.944298 3.959541 -31.742631 16.402148 52.841861 -0.000007 0.000017 3.350428 10.770531 -7.598588 -19.674281 -0.000009 -0.000000 3.756520 7.196765 -5.677122 -13.491759 0.000001 -0.000004 3.100009 0.000000 0.000000 -0.000004 0.086759 -2.345273 10.030884 -6.068884 14.168149 -5.790631 0.000004 -0.000004 4.061118 0.358325 10.465722 -1.488576 0.000003 0.000002 3.248893 -0.141371 10.465562 -1.488535 0.000000 -0.000001 2.639695 0.000000 0.000001 -0.000000 -0.104104 -0.006763 9.502947 -0.836929 15.137362 -4.584096 0.000002 0.000001 4.568734 0.443892 10.928393 -0.581624 0.000006 -0.000004 3.655011 -0.055471 10.926681 -0.579266 -0.000001 0.000002 2.741257 0.000002 -0.000003 -0.000002 -0.086756 2.267447 8.921700 7.774527 16.900016 0.707324 0.000003 -0.000001 4.061119 -0.935110 11.996542 0.740786 0.000005 0.000001 3.654977 0.067518 11.996741 0.741504 0.000001 -0.000004 2.741256 -0.000001 -0.000002 -0.000000 0.173503 4.467201 7.976974 16.683690 16.404596 5.397282 0.000005 -0.000004 3.350440 -1.759254 11.993777 2.365075 -0.000003 0.000002 2.842771 0.241989 11.993950 2.365293 0.000004 0.000003 2.639725 -0.000002 -0.000002 -0.000002 0.000001 0.000006 -0.000015 0.000001 0.000000 0.000000 0.000004 -0.000003 0.000031 -0.000001 -0.000001 -0.000001 -11.289945 -0.000007 -0.000006 -2.074931 -15.346354 21.072742 -0.000004 -0.000010 -38.200314 -0.136675 0.027237 10.507465 0.000002 -0.000002 -39.900856 -15.340482 10.371053 11.293766 -0.000004 -15.261642 0.000000 -0.673192 -0.603705 -27.598404 0.000002 -7.370708 0.000000 -0.000000 -0.000001 0.000000 -0.000004 -0.000001 0.000000 0.000001 0.000001 0.000003 0.000003 -0.000001 0.000003 0.000001 -0.000000 0.000000 11.315656 0.000001 0.000007 -6.442136 -26.162194 6.827164 0.000002 0.000000 -38.200310 1.169327 -1.023593 41.312058 0.000004 -0.000003 -39.900848 7.761015 13.024796 19.702908 0.000005 -15.261639 -0.000003 1.752029 1.665625 -35.284679 0.000002 -7.540001 0.000002 -0.000000 0.000001 -0.000000 0.000004 -0.000004 0.000002 0.000001 -0.000001 0.000003 0.000004 0.000004 0.000006 -0.000000 -0.000002 0.000002 
